#!OML:ASF F:\twosubjects\two\wednesday\Session 1\rory1.ASF
:FULLY-SPECIFIED
:DEGREES
195
root -4.03629 17.5009 -3.62944 182.895 -7.34617 -162.689
lowerback 6.20482 1.55865 -6.32536
upperback 4.1488 1.43383 -1.03413
thorax 0.676513 0.467989 2.39441
lowerneck 0.311848 -20.1365 -19.2306
upperneck 6.37501 -33.1028 29.9609
head 10.7087 -16.4522 7.83605
rclavicle 7.95139e-016 -3.49861e-014
rhumerus 35.1653 -70.5657 -77.2665
rradius 20.0434
rwrist -30.2433
rhand 5.04301 -1.32711
rfingers 7.12502
rthumb 30.411 -28.8392
lclavicle 7.95139e-016 -3.49861e-014
lhumerus -31.5215 6.3316 45.5863
lradius 27.8202
lwrist 4.25958
lhand -26.5971 6.71431
lfingers 7.12502
lthumb -0.0309828 36.6941
rfemur -9.93036 9.57281 23.2529
rtibia 22.2851
rfoot -10.2048 -11.1071
rtoes -7.24958
lfemur -36.6014 -1.33431 -0.337292
ltibia 67.5595
lfoot -24.4672 5.79535
ltoes -13.0421
196
root -4.21755 17.4956 -3.78282 183.21 -6.01731 -163.062
lowerback 7.21437 1.44843 -6.17284
upperback 3.31032 1.19956 -1.60915
thorax -0.717945 0.424965 1.70789
lowerneck 0.644119 -19.8722 -19.0581
upperneck 7.33622 -32.9225 29.1832
head 10.7177 -16.3795 7.68514
rclavicle 1.35174e-014 2.54444e-014
rhumerus 31.3203 -70.3381 -74.079
rradius 19.782
rwrist -29.1283
rhand 5.86047 -1.33165
rfingers 7.12502
rthumb 31.1904 -28.6967
lclavicle 1.35174e-014 2.54444e-014
lhumerus -32.813 5.31571 44.6659
lradius 27.7949
lwrist 4.15811
lhand -25.4471 15.8154
lfingers 7.12502
lthumb 1.07979 45.7924
rfemur -9.56441 10.3484 22.4196
rtibia 22.0222
rfoot -10.222 -11.3867
rtoes -7.78104
lfemur -35.5582 -2.04713 0.0347563
ltibia 64.9678
lfoot -24.7651 6.06916
ltoes -17.2013
197
root -4.40208 17.4763 -3.92904 183.652 -4.2793 -163.532
lowerback 7.03987 1.62801 -6.44365
upperback 3.25735 1.41107 -1.87628
thorax -0.691806 0.522244 1.56842
lowerneck 1.2206 -19.8615 -19.15
upperneck 6.68598 -32.801 29.3672
head 10.4138 -16.4154 7.85378
rclavicle 7.95139e-016 2.54444e-014
rhumerus 32.7912 -70.8869 -75.1371
rradius 19.1612
rwrist -27.1917
rhand 6.38464 -1.24083
rfingers 7.12502
rthumb 31.6898 -28.5085
lclavicle 7.95139e-016 2.54444e-014
lhumerus -32.8842 5.67397 44.5236
lradius 27.4065
lwrist 3.80656
lhand -25.1113 18.2053
lfingers 7.12502
lthumb 1.40408 48.1805
rfemur -9.72531 10.999 21.3909
rtibia 22.1889
rfoot -10.1916 -11.3482
rtoes -7.48609
lfemur -34.3283 -2.68266 0.232891
ltibia 62.3582
lfoot -25.1666 5.97199
ltoes -17.2041
198
root -4.57595 17.443 -4.07477 184.164 -2.71887 -163.831
lowerback 6.93984 1.78616 -6.5924
upperback 3.14543 1.6035 -2.05996
thorax -0.765612 0.618363 1.4469
lowerneck -0.938427 -20.3295 -19.3841
upperneck 8.98208 -33.4052 27.9256
head 11.4693 -16.3534 6.97701
rclavicle 3.18055e-014 3.49861e-014
rhumerus 32.2513 -70.8013 -74.0217
rradius 18.7288
rwrist -26.3717
rhand 7.00176 -1.05711
rfingers 7.12502
rthumb 32.2774 -28.207
lclavicle 3.18055e-014 3.49861e-014
lhumerus -32.7373 6.34876 44.3673
lradius 26.8924
lwrist 3.10008
lhand -25.3463 18.6423
lfingers 7.12502
lthumb 1.17708 48.6188
rfemur -10.1636 11.6302 20.5706
rtibia 22.8018
rfoot -10.3216 -11.4814
rtoes -5.38919
lfemur -33.2075 -3.58163 0.602432
ltibia 59.7835
lfoot -25.4706 5.93982
ltoes -15.7749
199
root -4.74861 17.3896 -4.22403 184.637 -1.31236 -163.7
lowerback 6.80108 1.75723 -6.23895
upperback 3.00879 1.5987 -2.16685
thorax -0.818217 0.626679 1.14218
lowerneck 0.790376 -20.2031 -19.3891
upperneck 6.87495 -33.1135 28.9451
head 10.5768 -16.5071 7.58469
rclavicle -2.70347e-014 -9.85972e-014
rhumerus 30.6128 -69.9195 -72.0068
rradius 18.5041
rwrist -26.2447
rhand 7.00248 -0.918084
rfingers 7.12502
rthumb 32.2781 -28.0679
lclavicle -2.70347e-014 -9.85972e-014
lhumerus -32.8181 6.63097 44.1059
lradius 26.6019
lwrist 2.95822
lhand -24.2401 19.5197
lfingers 7.12502
lthumb 2.24546 49.4876
rfemur -10.8866 12.0493 20.241
rtibia 24.1132
rfoot -10.6393 -11.7322
rtoes -5.13156
lfemur -32.1114 -4.59277 1.36508
ltibia 57.3829
lfoot -25.6673 6.16275
ltoes -17.4533
